<?xml version="1.0" ?>

<svg height="24px" version="1.1" viewBox="0 0 24 24" width="24px" xmlns="http://www.w3.org/2000/svg" xmlns:sketch="http://www.bohemiancoding.com/sketch/ns" xmlns:xlink="http://www.w3.org/1999/xlink" class='icon-responsive'>
<title/>
<desc/><defs/>
<g fill-rule="evenodd" id="miu" stroke="none" stroke-width="1">
  <g id="Artboard-1" transform="translate(-863.000000, -263.000000)">
    <g id="slice" transform="translate(215.000000, 119.000000)"/>
    <path d="M865.033611,265.659569 L864.353838,275.060415 L875.15011,285.856687 C875.34102,286.047598 875.653951,286.044194 875.848684,285.849461 L885.749485,275.94866 C885.944387,275.753758 885.94488,275.438253 885.756711,275.250085 L874.960439,264.453813 L865.559594,265.133586 C865.28869,265.153175 865.052797,265.394235 865.033611,265.659569 Z M866.5778,266.137068 C866.304907,266.162799 866.062497,266.408347 866.037092,266.677775 L865.291608,274.583972 L875.165607,284.457971 C875.356637,284.649001 875.671048,284.64431 875.866217,284.449141 L884.349166,275.966193 C884.545072,275.770286 884.551485,275.459072 884.357995,275.265583 L874.483997,265.391584 L866.5778,266.137068 L866.5778,266.137068 Z M872.156669,272.256644 C872.937717,271.475595 872.951787,270.223336 872.188095,269.459644 C871.424404,268.695952 870.172144,268.710022 869.391095,269.491071 C868.610047,270.27212 868.595976,271.524379 869.359668,272.288071 C870.12336,273.051763 871.37562,273.037693 872.156669,272.256644 L872.156669,272.256644 Z M871.465275,271.565251 C871.8558,271.174726 871.862835,270.548597 871.480989,270.166751 C871.099143,269.784905 870.473013,269.79194 870.082489,270.182464 C869.691964,270.572989 869.684929,271.199118 870.066775,271.580964 C870.448621,271.96281 871.074751,271.955775 871.465275,271.565251 L871.465275,271.565251 Z" id="common-tag-general-price-outline-stroke"/>
  </g>
</g>
</svg>
